<?xml version="1.0" encoding="UTF-8"?>
<svg width="601px" height="327px" viewBox="0 0 601 327" version="1.1" xmlns="http://www.w3.org/2000/svg" xmlns:xlink="http://www.w3.org/1999/xlink">
    <!-- Generator: Sketch 56.2 (81672) - https://sketch.com -->
    <title>logo</title>
    <desc>Created with Sketch.</desc>
    <defs>
        <radialGradient cx="98.3037758%" cy="99.8200643%" fx="98.3037758%" fy="99.8200643%" r="271.376044%" gradientTransform="translate(0.983038,0.998201),scale(0.362305,1.000000),translate(-0.983038,-0.998201)" id="radialGradient-1">
            <stop stop-color="#FFFFFF" offset="0.7086212%"></stop>
            <stop stop-color="#CBFFFF" offset="3.009906%"></stop>
            <stop stop-color="#96FFFF" offset="5.700687%"></stop>
            <stop stop-color="#68FFFF" offset="8.427694%"></stop>
            <stop stop-color="#43FFFF" offset="11.13%"></stop>
            <stop stop-color="#25FFFF" offset="13.82%"></stop>
            <stop stop-color="#11FFFF" offset="16.47%"></stop>
            <stop stop-color="#04FFFF" offset="19.08%"></stop>
            <stop stop-color="#00FFFF" offset="21.59%"></stop>
            <stop stop-color="#0000FF" stop-opacity="0" offset="100%"></stop>
        </radialGradient>
    </defs>
    <g id="Page-1" stroke="none" stroke-width="1" fill="none" fill-rule="evenodd">
        <g id="Artboard" transform="translate(-196.000000, -172.000000)">
            <g id="logo" transform="translate(196.000000, 172.000000)">
                <g id="Layer_1" transform="translate(0.314865, 0.450000)">
                    <g id="Group">
                        <path d="M424.576486,211.018784 C416.267297,212.922973 394.397973,214.019324 394.397973,214.019324 L391.628243,222.67473 C391.628243,222.67473 402.534054,221.751486 410.497027,222.559324 C410.497027,222.559324 413.093649,222.270811 413.382162,225.502162 C413.497568,228.502703 413.151351,231.734054 413.151351,231.734054 C413.151351,231.734054 412.978243,233.695946 410.208514,234.157568 C407.207973,234.676892 386.665811,235.427027 386.665811,235.427027 L383.319054,246.679054 C383.319054,246.679054 382.107297,249.275676 384.877027,248.525541 C387.473649,247.833108 408.996757,243.793919 411.824189,244.370946 C414.82473,245.121081 418.171486,249.102568 417.190541,252.795541 C416.036486,257.296351 394.571081,271.029595 381.472568,270.048649 C381.472568,270.048649 374.605946,270.51027 368.777973,261.220135 C363.353919,252.391622 370.85527,235.600135 370.85527,235.600135 C370.85527,235.600135 367.450811,227.752568 369.932027,225.155946 C369.932027,225.155946 371.432297,223.828784 375.702297,223.482568 L380.953243,212.576757 C380.953243,212.576757 374.952162,212.980676 371.374595,208.59527 C368.027838,204.382973 367.797027,202.478784 370.335946,201.32473 C373.047973,199.997568 398.033243,195.439054 415.228649,196.016081 C415.228649,196.016081 421.22973,195.439054 426.36527,205.825541 C426.307568,205.825541 428.846486,210.037838 424.576486,211.018784 L424.576486,211.018784 Z M359.891757,252.910946 C357.699054,258.104189 351.871081,263.643649 344.658243,260.181486 C337.503108,256.719324 326.135676,233.465135 326.135676,233.465135 C326.135676,233.465135 321.807973,224.80973 321.000135,224.982838 C321.000135,224.982838 320.076892,223.309459 319.499865,232.772703 C318.922838,242.235946 319.61527,260.643108 315.864595,263.528243 C312.287027,266.413378 307.959324,265.259324 305.708919,261.854865 C303.689324,258.508108 302.823784,250.545135 303.920135,236.581081 C305.247297,222.617027 308.478649,207.72973 312.633243,203.055811 C316.787838,198.439595 320.134595,201.786351 321.404054,202.998108 C321.404054,202.998108 326.943514,208.018243 336.118243,222.790135 L337.733919,225.502162 C337.733919,225.502162 346.043108,239.466216 346.908649,239.408514 C346.908649,239.408514 347.601081,240.043243 348.178108,239.581622 C349.043649,239.350811 348.697432,234.85 348.697432,234.85 C348.697432,234.85 346.966351,219.674189 339.407297,193.938784 C339.407297,193.938784 338.253243,190.707432 339.061081,187.706892 C339.811216,184.648649 342.869459,186.091216 342.869459,186.091216 C342.869459,186.091216 354.640811,191.976892 360.295676,211.134189 C365.892838,230.464595 362.084459,247.717703 359.891757,252.910946 L359.891757,252.910946 Z M302.073649,203.690541 C301.092703,205.652432 300.515676,208.479865 295.553243,209.23 C295.553243,209.23 248.063919,212.461351 245.813514,215.808108 C245.813514,215.808108 244.140135,217.77 246.736757,218.347027 C249.333378,218.866351 260.066081,220.308919 265.259324,220.597432 C270.798784,220.655135 289.494459,220.828243 296.187973,229.195135 C296.187973,229.195135 300.169459,233.176622 299.996351,242.178243 C299.823243,251.410676 298.207568,254.642027 294.63,257.988784 C290.879324,261.10473 258.681216,275.530405 237.908243,253.372568 C237.908243,253.372568 228.329595,242.697568 241.197297,234.619189 C241.197297,234.619189 250.487432,229.022027 274.087838,235.600135 C274.087838,235.600135 281.242973,238.196757 280.896757,240.793378 C280.492838,243.563108 275.011081,246.505946 267.048108,246.332838 C259.315946,246.102027 253.661081,242.409054 254.757432,242.986081 C255.796081,243.39 246.448243,238.48527 243.563108,241.832027 C240.677973,244.89027 241.370405,246.794459 244.197838,248.698649 C251.410676,252.795541 279.281081,251.352973 287.59027,242.120541 C287.59027,242.120541 290.879324,238.369865 285.859189,235.311622 C280.839054,232.426486 266.471081,230.695405 260.873919,230.406892 C255.507568,230.118378 235.542432,230.464595 232.657297,225.155946 C232.657297,225.155946 229.772162,221.578378 232.945811,211.422703 C236.292568,200.805405 259.546757,196.708514 269.587027,195.78527 C269.587027,195.78527 297.226622,194.804324 302.304459,200.459189 C302.246757,200.459189 302.939189,201.786351 302.073649,203.690541 L302.073649,203.690541 Z M223.597973,265.951757 C220.251216,268.432973 213.153784,267.336622 211.134189,264.566892 C209.114595,262.085676 208.422162,252.218514 208.826081,236.754189 C209.23,221.116757 209.576216,201.728649 212.922973,198.670405 C216.500541,195.554459 218.693243,198.266486 220.078108,200.401486 C221.578378,202.478784 223.367162,204.786892 223.771081,209.691622 C224.117297,214.596351 225.271351,240.331757 225.271351,240.331757 C225.271351,240.331757 226.771622,263.528243 223.597973,265.951757 L223.597973,265.951757 Z M230.810811,182.97527 C221.059054,186.206622 214.365541,185.11027 208.710676,182.686757 C206.229459,187.014459 204.786892,188.341622 202.882703,188.630135 C200.112973,188.918649 197.631757,184.475541 197.170135,183.032973 C196.708514,181.936622 195.381351,180.090135 196.997027,175.70473 C191.457568,170.742297 191.053649,164.048784 191.976892,159.547973 C193.361757,154.35473 202.709595,134.620405 231.157027,132.312297 C231.157027,132.312297 245.063378,131.273649 247.429189,138.717297 L247.833108,138.717297 C247.833108,138.717297 261.335541,138.775 261.047027,150.777162 C260.873919,162.837027 246.044324,177.83973 230.810811,182.97527 L230.810811,182.97527 Z M204.267568,156.258919 C201.382432,160.875135 201.267027,163.644865 202.594189,165.549054 C205.883243,160.528919 211.884324,152.623649 220.712838,146.622568 C213.903919,147.199595 208.191351,150.142432 204.267568,156.258919 L204.267568,156.258919 Z M243.563108,148.526757 C234.619189,149.853919 220.770541,161.856081 214.192432,171.665541 C224.290405,173.512027 242.120541,172.819595 250.025811,156.720541 C249.968108,156.720541 253.776486,146.737973 243.563108,148.526757 L243.563108,148.526757 Z M486.376081,241.485811 C481.00973,250.833649 465.949324,270.337162 445.868784,265.778649 C439.232973,281.877703 433.693514,298.092162 430.519865,322.442703 C430.519865,322.442703 429.827432,327.174324 425.903649,325.500946 C422.037568,324.116081 415.574865,317.653378 414.305405,308.709459 C412.920541,296.938108 418.171486,277.030676 428.846486,254.238108 C425.730541,249.16027 423.595541,241.88973 425.442027,231.560946 C425.442027,231.560946 428.154054,212.403649 447.369054,195.092838 C447.369054,195.092838 449.677162,193.073243 451.004324,193.707973 C452.504595,194.342703 451.812162,200.574595 450.600405,203.575135 C449.388649,206.575676 440.790946,221.462973 440.790946,221.462973 C440.790946,221.462973 435.424595,231.503243 436.924865,239.408514 C447.022838,223.886486 469.988514,192.553919 484.241081,202.421081 C489.030405,205.825541 491.223108,213.269189 491.223108,221.289865 C491.165405,228.387297 489.492027,235.888649 486.376081,241.485811 L486.376081,241.485811 Z M482.221486,216.904459 C482.221486,216.904459 481.413649,210.73027 475.412568,217.539189 C470.219324,223.251757 460.871486,234.042162 453.312432,248.640946 C461.217703,247.775405 468.834459,243.447703 471.142568,241.255 C474.893243,237.908243 483.606351,228.906622 482.221486,216.904459 L482.221486,216.904459 Z M202.074865,224.752027 C200.978514,238.716081 195.612162,262.201081 157.586081,273.799324 C132.485405,281.358378 108.769595,277.723108 95.8441892,274.434054 C95.5556757,279.569595 94.9786486,281.762297 94.1708108,282.627838 C93.0744595,283.724189 84.8806757,288.455811 80.3798649,281.762297 C78.3602703,278.588649 77.3216216,272.818378 76.7445946,267.682838 C47.6624324,254.295811 34.2754054,235.023108 33.7560811,234.157568 C33.1213514,233.522838 26.4855405,226.598514 33.1213514,218.116216 C39.3532432,210.441757 59.7222973,202.767297 78.0717568,199.651351 C78.7064865,183.956216 80.552973,172.127162 82.7456757,166.703108 C85.4,160.413514 88.7467568,166.068378 91.6318919,170.338378 C94.0554054,173.512027 95.497973,187.187568 95.6133784,198.093378 C107.615541,197.516351 114.712973,198.381892 128.1,200.805405 C145.526216,203.979054 157.182162,212.86527 156.143514,222.963243 C155.393378,232.888108 146.276351,236.985 142.814189,237.273514 C139.178919,237.562027 133.524054,234.965405 133.524054,234.965405 C129.657973,233.118919 133.235541,231.503251 137.909459,229.483649 C142.987297,227.002432 141.833243,224.463514 141.833243,224.463514 C139.929054,218.924054 117.309595,215.057973 94.8055405,215.057973 C94.6901351,227.464054 95.3248649,248.063919 95.6133784,260.066081 C111.366216,263.066622 123.137568,262.489595 123.137568,262.489595 C123.137568,262.489595 180.609459,260.873919 182.340541,224.175 C184.129324,187.418378 125.041757,152.162027 81.3608108,140.967703 C37.7375676,129.542568 13.0408108,137.505541 10.9058108,138.601892 C8.5977027,139.755946 10.7327027,140.102162 10.7327027,140.102162 C10.7327027,140.102162 13.0985135,140.448378 17.1954054,141.833243 C21.5231081,143.218108 18.1763514,145.468514 18.1763514,145.468514 C10.7327027,147.834324 2.36581081,146.334054 0.750135135,142.929595 C-0.865540541,139.525135 1.84648649,136.466892 4.96243243,132.081486 C8.07837838,127.46527 11.4828378,127.638378 11.4828378,127.638378 C65.4348649,108.942703 131.158243,142.756486 131.158243,142.756486 C192.727027,173.973649 203.228919,210.557162 202.074865,224.752027 L202.074865,224.752027 Z M39.2378378,222.847838 C33.1213514,225.848378 37.3336486,230.176081 37.3336486,230.176081 C48.8164865,242.524459 62.9536486,250.256622 76.3983784,255.045946 C77.9563514,233.753649 77.7255405,226.252297 77.8986486,215.519595 C56.8948649,216.962162 44.7772973,220.308919 39.2378378,222.847838 L39.2378378,222.847838 Z" id="Shape" fill="#FFFFFF" fill-rule="nonzero"></path>
                        <path d="M600.627432,218.462432 L600.627432,226.079189 C600.627432,227.752568 599.30027,229.07973 597.626892,229.07973 L561.331892,229.07973 C561.331892,230.983919 561.389595,232.657297 561.389595,234.21527 C561.389595,245.467297 560.927973,254.642027 559.831622,264.970811 C559.658514,266.528784 558.389054,267.682838 556.888784,267.682838 L549.041216,267.682838 C548.233378,267.682838 547.483243,267.336622 546.963919,266.759595 C546.444595,266.182568 546.156081,265.37473 546.271486,264.566892 C547.367838,254.295811 547.887162,245.236486 547.887162,234.21527 C547.887162,232.599595 547.887162,230.926216 547.829459,229.07973 L511.938378,229.07973 C510.265,229.07973 508.937838,227.752568 508.937838,226.079189 L508.937838,218.462432 C508.937838,216.789054 510.265,215.461892 511.938378,215.461892 L547.310135,215.461892 C546.56,203.055811 545.05973,191.111351 542.636216,178.993784 C542.520811,178.243649 542.693919,177.493514 543.155541,176.916486 C543.617162,176.339459 544.309595,175.993243 545.05973,175.993243 L553.542027,175.993243 C554.869189,175.993243 555.965541,176.916486 556.254054,178.243649 C558.619865,190.765135 560.120135,202.940405 560.87027,215.461892 L597.626892,215.461892 C599.242568,215.461892 600.627432,216.846757 600.627432,218.462432 Z" id="Path" fill="#FFFFFF" fill-rule="nonzero"></path>
                        <g transform="translate(105.018919, 0.000000)" id="Shape">
                            <path d="M10.5209459,117.886622 C10.5209459,117.886622 10.4621224,117.886622 10.4621224,117.886622 L10.5209459,117.886622 Z M10.0503577,117.986622 C9.87388712,117.986622 9.69741653,117.886622 9.52094595,117.886622 C9.69741653,117.986622 9.87388712,117.986622 10.0503577,117.986622 C10.1091812,117.986622 10.1680048,117.986622 10.2268283,117.986622 C10.1680048,117.986622 10.1091812,117.986622 10.0503577,117.986622 Z M10.0503577,117.986622 C9.87388712,117.986622 9.69741653,117.886622 9.52094595,117.886622 C9.69741653,117.986622 9.87388712,117.986622 10.0503577,117.986622 C10.1091812,117.986622 10.1680048,117.986622 10.2268283,117.986622 C10.1680048,117.986622 10.1091812,117.986622 10.0503577,117.986622 Z"></path>
                            <path d="M446.215,158.047703 C427.461622,111.943243 395.782838,72.6477027 354.583108,44.3733784 C312.402432,15.4643243 262.951216,0.173108108 211.595811,0.173108108 C126.657432,0.173108108 47.8355405,42.3537838 0.807837838,113.039595 C0.288513514,113.78973 0.173108108,114.770676 0.461621622,115.636216 C0.750135135,116.559459 1.44256757,117.194189 2.30810811,117.482703 L8.88621622,119.733108 C9.29013514,119.848514 9.69405405,119.906216 10.0402703,119.906216 C11.252027,119.906216 12.4060811,119.271486 13.0985135,118.290541 C34.6793243,86.5540541 63.8768919,60.1839189 97.5752703,41.9498649 C132.37,23.1387838 171.780946,13.1562162 211.538108,13.1562162 C259.604459,13.1562162 305.93973,27.3510811 345.639189,54.1251351 C384.357703,80.2644595 414.420811,116.79027 432.597162,159.663378 C433.116486,160.932838 434.385946,161.798378 435.770811,161.798378 L443.618378,161.798378 C444.541622,161.798378 445.407162,161.336757 445.868784,160.586622 C446.445811,159.836486 446.561216,158.913243 446.215,158.047703 Z M10.0402703,117.944324 C9.86716216,117.944324 9.69405405,117.886622 9.52094595,117.828919 C9.69405405,117.886622 9.86716216,117.944324 10.0402703,117.944324 C10.097973,117.944324 10.1556757,117.944324 10.1556757,117.944324 C10.1556757,117.944324 10.097973,117.944324 10.0402703,117.944324 Z M434.155135,160.75973 C434.328243,160.875135 434.501351,160.990541 434.674459,161.048243 C434.501351,160.932838 434.328243,160.875135 434.155135,160.75973 Z" fill="url(#radialGradient-1)" fill-rule="nonzero"></path>
                        </g>
                    </g>
                </g>
            </g>
        </g>
    </g>
</svg>